<?xml version="1.0" encoding="utf-8"?>
<!-- Generator: Adobe Illustrator 24.1.0, SVG Export Plug-In . SVG Version: 6.00 Build 0)  -->
<svg version="1.1" id="Ebene_1" xmlns="http://www.w3.org/2000/svg" xmlns:xlink="http://www.w3.org/1999/xlink" x="0px" y="0px"
	 viewBox="0 0 368.5 155.9" style="enable-background:new 0 0 368.5 155.9;" xml:space="preserve">
<style type="text/css">
	.st0{fill:#193657;}
	.st1{clip-path:url(#SVGID_2_);fill:none;stroke:#649DC8;stroke-width:4.1344;stroke-linecap:round;stroke-miterlimit:10;}
	.st2{clip-path:url(#SVGID_4_);fill:#649DC8;}
	.st3{clip-path:url(#SVGID_6_);fill:none;stroke:#649DC8;stroke-width:4.1344;stroke-miterlimit:10;}
	.st4{clip-path:url(#SVGID_8_);fill:#649DC8;}
	.st5{clip-path:url(#SVGID_10_);fill:none;stroke:#649DC8;stroke-width:4.1344;stroke-miterlimit:10;}
	.st6{clip-path:url(#SVGID_12_);fill:#649DC8;}
	.st7{clip-path:url(#SVGID_14_);fill:none;stroke:#649DC8;stroke-width:4.1344;stroke-miterlimit:10;}
	.st8{clip-path:url(#SVGID_16_);fill:#649DC8;}
	.st9{clip-path:url(#SVGID_18_);fill:none;stroke:#649DC8;stroke-width:4.1344;stroke-miterlimit:10;}
	.st10{clip-path:url(#SVGID_20_);fill:#649DC8;}
	.st11{clip-path:url(#SVGID_22_);fill:none;stroke:#649DC8;stroke-width:4.1344;stroke-miterlimit:10;}
	.st12{clip-path:url(#SVGID_24_);fill:#649DC8;}
	.st13{clip-path:url(#SVGID_26_);fill:none;stroke:#649DC8;stroke-width:4.1344;stroke-miterlimit:10;}
	.st14{clip-path:url(#SVGID_28_);fill:#649DC8;}
	.st15{clip-path:url(#SVGID_30_);fill:none;stroke:#649DC8;stroke-width:4.1344;stroke-miterlimit:10;}
	.st16{clip-path:url(#SVGID_32_);fill:#649DC8;}
	.st17{clip-path:url(#SVGID_34_);fill:none;stroke:#649DC8;stroke-width:4.1344;stroke-miterlimit:10;}
	.st18{clip-path:url(#SVGID_36_);fill:none;stroke:#649DC8;stroke-width:4.1344;}
</style>
<g>
	<path class="st0" d="M161.9,72.8h-8.1v27.7h-11.9V72.8h-4.8v-8.8h4.8v-3.5c0-9.6,3.7-12.2,19.6-12.1v9.1c-0.7-0.2-1.5-0.3-2.2-0.3
		c-5.3,0-5.4,1-5.4,5.6v1.3h8.1V72.8z"/>
	<path class="st0" d="M186.2,78.2c0-2.6,0.1-5.4-3.1-5.4c-3.6,0-4.4,2.8-4.4,5.8v21.9h-11.9V64.1h11.6v5.3h0.5
		c1.6-4.2,4.7-5.8,9.2-5.8c8.3,0,9,6.8,9,13.5V80h-10.8L186.2,78.2L186.2,78.2z"/>
	<path class="st0" d="M224.7,95.1h-0.4c-0.9,5-6.3,5.8-10.5,5.8c-8.3,0-13.2-2-13.2-11.3c0-8.8,4.6-11.5,13.2-11.5
		c3.4,0,8.6-0.1,9.9,4.1h0.6v-5.8c0-3.4-0.2-5.6-5.4-5.6c-3,0-4.9,0.7-4.9,4h-11.9c0-11.3,8.3-11.3,16.8-11.3
		c12.2,0,17.4,1.5,17.4,14.1v22.8h-11.9L224.7,95.1z M212.6,89.3c0,4,3.4,4,5.2,4c5,0,6.5-0.6,6.5-4.4c0-3.1-2.6-3.3-6.5-3.3
		C214.9,85.4,212.6,85.9,212.6,89.3z"/>
	<path class="st0" d="M267,95.1h-0.4c-0.9,5-6.3,5.8-10.5,5.8c-8.3,0-13.2-2-13.2-11.3c0-8.8,4.6-11.5,13.2-11.5
		c3.4,0,8.6-0.1,9.9,4.1h0.6v-5.8c0-3.4-0.2-5.6-5.4-5.6c-3,0-4.9,0.7-4.9,4h-11.9c0-11.3,8.3-11.3,16.8-11.3
		c12.2,0,17.4,1.5,17.4,14.1v22.8h-12L267,95.1z M254.9,89.3c0,4,3.4,4,5.2,4c5,0,6.5-0.6,6.5-4.4c0-3.1-2.6-3.3-6.5-3.3
		C257.2,85.4,254.9,85.9,254.9,89.3z"/>
	<path class="st0" d="M298,64.1v5.1h0.5c1.5-4.3,5.9-5.6,10-5.6c5.1,0,10.4,0.9,11,7.2h0.6c0.6-5.2,5.6-7.2,10.1-7.2
		c8.4,0,12.7,3.5,12.7,12v24.9h-12V79.4c-0.2-3.8-0.1-6.6-4.8-6.6s-5.6,3.1-5.6,7v20.7h-12V78.4c-0.1-3.3-0.4-5.6-4.5-5.6
		c-4.9,0-5.8,2.6-5.8,7v20.7h-12V64.1H298z"/>
</g>
<g>
	<g>
		<defs>
			<rect id="SVGID_1_" x="16.3" y="16.7" width="339.6" height="151.6"/>
		</defs>
		<clipPath id="SVGID_2_">
			<use xlink:href="#SVGID_1_"  style="overflow:visible;"/>
		</clipPath>
		<path class="st1" d="M115.2,64.6h-11.8c-1-5.7-3.3-10.9-6.7-15.3l8.6-8.6c2-2,2-5.1,0-7.1s-5.1-2-7.1,0l-8.6,8.6
			c-4.4-3.3-9.6-5.5-15.3-6.5v-12c0-2.8-2.2-5-5-5s-5,2.2-5,5v11.8c-5.9,0.7-11.3,2.8-15.9,6.1l-8-8c-2-2-5.1-2-7.1,0
			c-2,2-2,5.1,0,7.1l7.7,7.7c-3.7,4.6-6.3,10.1-7.4,16.2H23.4c-2.8,0-5,2.2-5,5s2.2,5,5,5h10c0.7,6.3,3.1,12.2,6.7,17.1l-6.8,6.8
			c-2,2-2,5.1,0,7.1c1,1,2.3,1.5,3.5,1.5s2.6-0.5,3.5-1.5l6.8-6.8c4.9,3.7,10.7,6.2,17.1,6.9v9.7c0,2.8,2.2,5,5,5c2.8,0,5-2.2,5-5
			v-9.9c6.2-1,11.8-3.6,16.4-7.4l7.5,7.5c1,1,2.3,1.5,3.6,1.5c1.3,0,2.6-0.5,3.6-1.5c2-2,2-5.1,0-7.1l-7.7-7.7
			c3.3-4.7,5.4-10.2,6.1-16.2h11.5c2.8,0,5-2.2,5-5C120.2,66.9,117.9,64.6,115.2,64.6z"/>
	</g>
	<g>
		<defs>
			<rect id="SVGID_3_" x="16.3" y="16.7" width="339.6" height="151.6"/>
		</defs>
		<clipPath id="SVGID_4_">
			<use xlink:href="#SVGID_3_"  style="overflow:visible;"/>
		</clipPath>
		<path class="st2" d="M42.3,74.4c0.6,4.1,2.1,7.9,4.4,11.2l2.4-2.4c-1.7-2.6-2.9-5.6-3.4-8.8H42.3z"/>
	</g>
	<g>
		<defs>
			<rect id="SVGID_5_" x="16.3" y="16.7" width="339.6" height="151.6"/>
		</defs>
		<clipPath id="SVGID_6_">
			<use xlink:href="#SVGID_5_"  style="overflow:visible;"/>
		</clipPath>
		<path class="st3" d="M42.3,74.4c0.6,4.1,2.1,7.9,4.4,11.2l2.4-2.4c-1.7-2.6-2.9-5.6-3.4-8.8H42.3z"/>
	</g>
	<g>
		<defs>
			<rect id="SVGID_7_" x="16.3" y="16.7" width="339.6" height="151.6"/>
		</defs>
		<clipPath id="SVGID_8_">
			<use xlink:href="#SVGID_7_"  style="overflow:visible;"/>
		</clipPath>
		<path class="st4" d="M83.4,48.9c-3.1-2.1-6.6-3.6-10.4-4.2V48c2.9,0.6,5.6,1.7,8,3.2L83.4,48.9z"/>
	</g>
	<g>
		<defs>
			<rect id="SVGID_9_" x="16.3" y="16.7" width="339.6" height="151.6"/>
		</defs>
		<clipPath id="SVGID_10_">
			<use xlink:href="#SVGID_9_"  style="overflow:visible;"/>
		</clipPath>
		<path class="st5" d="M83.4,48.9c-3.1-2.1-6.6-3.6-10.4-4.2V48c2.9,0.6,5.6,1.7,8,3.2L83.4,48.9z"/>
	</g>
	<g>
		<defs>
			<rect id="SVGID_11_" x="16.3" y="16.7" width="339.6" height="151.6"/>
		</defs>
		<clipPath id="SVGID_12_">
			<use xlink:href="#SVGID_11_"  style="overflow:visible;"/>
		</clipPath>
		<path class="st6" d="M42.6,65.5H46c0.7-3.1,2.1-6,3.9-8.5l-2.4-2.4C45.1,57.7,43.4,61.5,42.6,65.5"/>
	</g>
	<g>
		<defs>
			<rect id="SVGID_13_" x="16.3" y="16.7" width="339.6" height="151.6"/>
		</defs>
		<clipPath id="SVGID_14_">
			<use xlink:href="#SVGID_13_"  style="overflow:visible;"/>
		</clipPath>
		<path class="st7" d="M42.6,65.5H46c0.7-3.1,2.1-6,3.9-8.5l-2.4-2.4C45.1,57.7,43.4,61.5,42.6,65.5z"/>
	</g>
	<g>
		<defs>
			<rect id="SVGID_15_" x="16.3" y="16.7" width="339.6" height="151.6"/>
		</defs>
		<clipPath id="SVGID_16_">
			<use xlink:href="#SVGID_15_"  style="overflow:visible;"/>
		</clipPath>
		<path class="st8" d="M64.1,48v-3.4c-3.6,0.6-7,2-10,3.9l2.4,2.4C58.8,49.6,61.4,48.6,64.1,48"/>
	</g>
	<g>
		<defs>
			<rect id="SVGID_17_" x="16.3" y="16.7" width="339.6" height="151.6"/>
		</defs>
		<clipPath id="SVGID_18_">
			<use xlink:href="#SVGID_17_"  style="overflow:visible;"/>
		</clipPath>
		<path class="st9" d="M64.1,48v-3.4c-3.6,0.6-7,2-10,3.9l2.4,2.4C58.8,49.6,61.4,48.6,64.1,48z"/>
	</g>
	<g>
		<defs>
			<rect id="SVGID_19_" x="16.3" y="16.7" width="339.6" height="151.6"/>
		</defs>
		<clipPath id="SVGID_20_">
			<use xlink:href="#SVGID_19_"  style="overflow:visible;"/>
		</clipPath>
		<path class="st10" d="M94.4,65.5c-0.8-3.8-2.4-7.4-4.6-10.4l-2.4,2.4c1.7,2.4,2.9,5.1,3.6,8H94.4z"/>
	</g>
	<g>
		<defs>
			<rect id="SVGID_21_" x="16.3" y="16.7" width="339.6" height="151.6"/>
		</defs>
		<clipPath id="SVGID_22_">
			<use xlink:href="#SVGID_21_"  style="overflow:visible;"/>
		</clipPath>
		<path class="st11" d="M94.4,65.5c-0.8-3.8-2.4-7.4-4.6-10.4l-2.4,2.4c1.7,2.4,2.9,5.1,3.6,8H94.4z"/>
	</g>
	<g>
		<defs>
			<rect id="SVGID_23_" x="16.3" y="16.7" width="339.6" height="151.6"/>
		</defs>
		<clipPath id="SVGID_24_">
			<use xlink:href="#SVGID_23_"  style="overflow:visible;"/>
		</clipPath>
		<path class="st12" d="M64.1,93.4c-3.2-0.6-6.2-1.9-8.8-3.7l-2.4,2.4c3.2,2.4,7,4,11.2,4.7V93.4z"/>
	</g>
	<g>
		<defs>
			<rect id="SVGID_25_" x="16.3" y="16.7" width="339.6" height="151.6"/>
		</defs>
		<clipPath id="SVGID_26_">
			<use xlink:href="#SVGID_25_"  style="overflow:visible;"/>
		</clipPath>
		<path class="st13" d="M64.1,93.4c-3.2-0.6-6.2-1.9-8.8-3.7l-2.4,2.4c3.2,2.4,7,4,11.2,4.7V93.4z"/>
	</g>
	<g>
		<defs>
			<rect id="SVGID_27_" x="16.3" y="16.7" width="339.6" height="151.6"/>
		</defs>
		<clipPath id="SVGID_28_">
			<use xlink:href="#SVGID_27_"  style="overflow:visible;"/>
		</clipPath>
		<path class="st14" d="M91.3,74.4c-0.5,3-1.5,5.7-3.1,8.2l2.4,2.4c2.1-3.2,3.4-6.8,4-10.7H91.3z"/>
	</g>
	<g>
		<defs>
			<rect id="SVGID_29_" x="16.3" y="16.7" width="339.6" height="151.6"/>
		</defs>
		<clipPath id="SVGID_30_">
			<use xlink:href="#SVGID_29_"  style="overflow:visible;"/>
		</clipPath>
		<path class="st15" d="M91.3,74.4c-0.5,3-1.5,5.7-3.1,8.2l2.4,2.4c2.1-3.2,3.4-6.8,4-10.7H91.3z"/>
	</g>
	<g>
		<defs>
			<rect id="SVGID_31_" x="16.3" y="16.7" width="339.6" height="151.6"/>
		</defs>
		<clipPath id="SVGID_32_">
			<use xlink:href="#SVGID_31_"  style="overflow:visible;"/>
		</clipPath>
		<path class="st16" d="M73,93.3v3.4c4.3-0.8,8.3-2.5,11.6-5.1l-2.4-2.4C79.5,91.2,76.4,92.7,73,93.3"/>
	</g>
	<g>
		<defs>
			<rect id="SVGID_33_" x="16.3" y="16.7" width="339.6" height="151.6"/>
		</defs>
		<clipPath id="SVGID_34_">
			<use xlink:href="#SVGID_33_"  style="overflow:visible;"/>
		</clipPath>
		<path class="st17" d="M73,93.3v3.4c4.3-0.8,8.3-2.5,11.6-5.1l-2.4-2.4C79.5,91.2,76.4,92.7,73,93.3z"/>
	</g>
	<g>
		<defs>
			<rect id="SVGID_35_" x="16.3" y="16.7" width="339.6" height="151.6"/>
		</defs>
		<clipPath id="SVGID_36_">
			<use xlink:href="#SVGID_35_"  style="overflow:visible;"/>
		</clipPath>
		<path class="st18" d="M68.6,82C74.9,82,80,76.9,80,70.6s-5.1-11.5-11.4-11.5s-11.5,5.1-11.5,11.5C57.2,76.9,62.3,82,68.6,82z"/>
	</g>
</g>
</svg>
